<svg id="visual" viewBox="0 0 900 600" width="900" height="600" xmlns="http://www.w3.org/2000/svg" xmlns:xlink="http://www.w3.org/1999/xlink" version="1.1"><rect x="0" y="0" width="900" height="600" fill="#ede3f5"></rect><path d="M0 84L50 99.2C100 114.3 200 144.7 300 185C400 225.3 500 275.7 600 278C700 280.3 800 234.7 850 211.8L900 189L900 601L850 601C800 601 700 601 600 601C500 601 400 601 300 601C200 601 100 601 50 601L0 601Z" fill="#d2ddff"></path><path d="M0 222L50 216.2C100 210.3 200 198.7 300 196C400 193.3 500 199.7 600 224.7C700 249.7 800 293.3 850 315.2L900 337L900 601L850 601C800 601 700 601 600 601C500 601 400 601 300 601C200 601 100 601 50 601L0 601Z" fill="#c0ccff"></path><path d="M0 249L50 240.8C100 232.7 200 216.3 300 219.7C400 223 500 246 600 289.2C700 332.3 800 395.7 850 427.3L900 459L900 601L850 601C800 601 700 601 600 601C500 601 400 601 300 601C200 601 100 601 50 601L0 601Z" fill="#b1b9ff"></path><path d="M0 446L50 425.5C100 405 200 364 300 357.7C400 351.3 500 379.7 600 407.3C700 435 800 462 850 475.5L900 489L900 601L850 601C800 601 700 601 600 601C500 601 400 601 300 601C200 601 100 601 50 601L0 601Z" fill="#a6a6ff"></path><path d="M0 402L50 407.2C100 412.3 200 422.7 300 414.8C400 407 500 381 600 380.7C700 380.3 800 405.7 850 418.3L900 431L900 601L850 601C800 601 700 601 600 601C500 601 400 601 300 601C200 601 100 601 50 601L0 601Z" fill="#9f92fd"></path><path d="M0 462L50 452.5C100 443 200 424 300 409.8C400 395.7 500 386.3 600 402.7C700 419 800 461 850 482L900 503L900 601L850 601C800 601 700 601 600 601C500 601 400 601 300 601C200 601 100 601 50 601L0 601Z" fill="#9c7cf7"></path><path d="M0 531L50 523C100 515 200 499 300 489.8C400 480.7 500 478.3 600 486.3C700 494.3 800 512.7 850 521.8L900 531L900 601L850 601C800 601 700 601 600 601C500 601 400 601 300 601C200 601 100 601 50 601L0 601Z" fill="#9c63ef"></path><path d="M0 567L50 559.2C100 551.3 200 535.7 300 524.7C400 513.7 500 507.3 600 509.7C700 512 800 523 850 528.5L900 534L900 601L850 601C800 601 700 601 600 601C500 601 400 601 300 601C200 601 100 601 50 601L0 601Z" fill="#9f46e4"></path></svg>