<svg id="visual" viewBox="0 0 900 600" width="900" height="600" xmlns="http://www.w3.org/2000/svg" xmlns:xlink="http://www.w3.org/1999/xlink" version="1.1"><rect x="0" y="0" width="900" height="600" fill="#ede3f5"></rect><path d="M0 514L50 498.8C100 483.7 200 453.3 300 413C400 372.7 500 322.3 600 320C700 317.7 800 363.3 850 386.2L900 409L900 0L850 0C800 0 700 0 600 0C500 0 400 0 300 0C200 0 100 0 50 0L0 0Z" fill="#d2ddff"></path><path d="M0 376L50 381.8C100 387.7 200 399.3 300 402C400 404.7 500 398.3 600 373.3C700 348.3 800 304.7 850 282.8L900 261L900 0L850 0C800 0 700 0 600 0C500 0 400 0 300 0C200 0 100 0 50 0L0 0Z" fill="#c0ccff"></path><path d="M0 349L50 357.2C100 365.3 200 381.7 300 378.3C400 375 500 352 600 308.8C700 265.7 800 202.3 850 170.7L900 139L900 0L850 0C800 0 700 0 600 0C500 0 400 0 300 0C200 0 100 0 50 0L0 0Z" fill="#b1b9ff"></path><path d="M0 152L50 172.5C100 193 200 234 300 240.3C400 246.7 500 218.3 600 190.7C700 163 800 136 850 122.5L900 109L900 0L850 0C800 0 700 0 600 0C500 0 400 0 300 0C200 0 100 0 50 0L0 0Z" fill="#a6a6ff"></path><path d="M0 196L50 190.8C100 185.7 200 175.3 300 183.2C400 191 500 217 600 217.3C700 217.7 800 192.3 850 179.7L900 167L900 0L850 0C800 0 700 0 600 0C500 0 400 0 300 0C200 0 100 0 50 0L0 0Z" fill="#9f92fd"></path><path d="M0 136L50 145.5C100 155 200 174 300 188.2C400 202.3 500 211.7 600 195.3C700 179 800 137 850 116L900 95L900 0L850 0C800 0 700 0 600 0C500 0 400 0 300 0C200 0 100 0 50 0L0 0Z" fill="#9c7cf7"></path><path d="M0 67L50 75C100 83 200 99 300 108.2C400 117.3 500 119.7 600 111.7C700 103.7 800 85.3 850 76.2L900 67L900 0L850 0C800 0 700 0 600 0C500 0 400 0 300 0C200 0 100 0 50 0L0 0Z" fill="#9c63ef"></path><path d="M0 31L50 38.8C100 46.7 200 62.3 300 73.3C400 84.3 500 90.7 600 88.3C700 86 800 75 850 69.5L900 64L900 0L850 0C800 0 700 0 600 0C500 0 400 0 300 0C200 0 100 0 50 0L0 0Z" fill="#9f46e4"></path></svg>