<svg id="visual" viewBox="0 0 900 600" width="900" height="600" xmlns="http://www.w3.org/2000/svg" xmlns:xlink="http://www.w3.org/1999/xlink" version="1.1"><rect x="0" y="0" width="900" height="600" fill="#002233"></rect><path d="M0 492L21.5 476.7C43 461.3 86 430.7 128.8 431.8C171.7 433 214.3 466 257.2 464C300 462 343 425 385.8 424.5C428.7 424 471.3 460 514.2 461.3C557 462.7 600 429.3 642.8 428.8C685.7 428.3 728.3 460.7 771.2 457.8C814 455 857 417 878.5 398L900 379L900 601L878.5 601C857 601 814 601 771.2 601C728.3 601 685.7 601 642.8 601C600 601 557 601 514.2 601C471.3 601 428.7 601 385.8 601C343 601 300 601 257.2 601C214.3 601 171.7 601 128.8 601C86 601 43 601 21.5 601L0 601Z" fill="#0066FF" stroke-linecap="round" stroke-linejoin="miter"></path></svg>